<svg xmlns="http://www.w3.org/2000/svg" viewBox="0 0 38.69 44.38"><title>health</title><g id="Layer_2" data-name="Layer 2"><g id="Layer_1-2" data-name="Layer 1"><path d="M10.67.46c1.71,0,3.09.87,3.09,1.94a1.27,1.27,0,0,1,0,.28c3.84.33,7,1.18,7,2.47V23a8.83,8.83,0,0,1-8.8,8.8H9.26A8.83,8.83,0,0,1,.46,23V5.15c0-1.49,3.25-2.31,7.15-2.54a.75.75,0,0,1,0-.21C7.59,1.33,9,.46,10.67.46Z" fill="#fff" fill-rule="evenodd"/><path d="M12,32.23H9.26A9.27,9.27,0,0,1,0,23V5.15c0-2.1,4.29-2.77,7.14-3C7.31.94,8.8,0,10.67,0s3.44,1,3.55,2.26c2.81.27,7,1,7,2.89V23A9.27,9.27,0,0,1,12,32.23ZM10.67.93C9.25.93,8.05,1.6,8.05,2.4c0,.05,0,.09,0,.13L8.15,3l-.52,0C3,3.35.93,4.32.93,5.15V23a8.35,8.35,0,0,0,8.33,8.34H12A8.35,8.35,0,0,0,20.3,23V5.15c0-.58-1.76-1.59-6.61-2l-.54,0,.12-.52a.55.55,0,0,0,0-.18C13.29,1.6,12.09.93,10.67.93Z" fill="#4a4a4a"/><polygon points="10.64 14.73 10.64 15.21 6.46 15.21 6.46 14.24 10.64 14.24 10.64 14.73 10.64 14.73" fill="#4a4a4a"/><polygon points="10.64 21.64 10.64 22.13 6.46 22.13 6.46 21.16 10.64 21.16 10.64 21.64 10.64 21.64" fill="#4a4a4a"/><polygon points="8.54 17.96 8.54 18.45 6.45 18.45 6.45 17.48 8.54 17.48 8.54 17.96 8.54 17.96" fill="#4a4a4a"/><polygon points="8.49 24.63 8.49 25.11 6.4 25.11 6.4 24.14 8.49 24.14 8.49 24.63 8.49 24.63" fill="#4a4a4a"/><polygon points="8.57 11.14 8.57 11.63 6.48 11.63 6.48 10.66 8.57 10.66 8.57 11.14 8.57 11.14" fill="#4a4a4a"/><path d="M9.21,31.89h2.84a.87.87,0,0,1,.87.87h0a.87.87,0,0,1-.87.87H9.21a.87.87,0,0,1-.87-.87h0a.87.87,0,0,1,.87-.87Z" fill="#fc0" fill-rule="evenodd"/><path d="M12.05,34.09H9.21a1.34,1.34,0,0,1,0-2.67h2.84a1.34,1.34,0,0,1,0,2.67ZM9.21,32.35a.41.41,0,0,0,0,.82h2.84a.41.41,0,0,0,0-.82Z" fill="#4a4a4a"/><path d="M9.71,35.72V33.66h1.74v2.06a.87.87,0,0,1-.87.87h0a.87.87,0,0,1-.87-.87Z" fill="#fff" fill-rule="evenodd"/><path d="M10.58,37.06a1.34,1.34,0,0,1-1.33-1.34V33.19h2.67v2.53A1.34,1.34,0,0,1,10.58,37.06Zm-.4-2.94v1.6a.41.41,0,1,0,.81,0v-1.6Z" fill="#4a4a4a"/><path d="M.86,14.93S4.41,19.8,9.28,20.1c2.36.15,7.27-2.61,11-.65.11,2.68.31,5-.94,7.39a8.07,8.07,0,0,1-3.49,3.58c-4.23,2.16-11.22,1.42-13.72-3.18A9.07,9.07,0,0,1,.86,22.16V14.93Z" fill="#00b4ff" fill-rule="evenodd"/><path d="M10.63,31.62a13.06,13.06,0,0,1-2.34-.22,8.65,8.65,0,0,1-6.24-4.15A9,9,0,0,1,.82,22.16V14.93l.06,0c0,.05,3.6,4.87,8.41,5.16a11.45,11.45,0,0,0,3.09-.55c2.41-.63,5.41-1.41,7.87-.1h0v0c0,.2,0,.39,0,.58.1,2.46.19,4.58-1,6.83a8.25,8.25,0,0,1-3.5,3.59A11.61,11.61,0,0,1,10.63,31.62ZM.89,15v7.14A9,9,0,0,0,2.1,27.22a8.64,8.64,0,0,0,6.2,4.11,12,12,0,0,0,7.49-.94,8.11,8.11,0,0,0,3.47-3.56c1.15-2.24,1.06-4.35,1-6.79,0-.19,0-.38,0-.57-2.43-1.28-5.41-.51-7.8.11a11.65,11.65,0,0,1-3.12.56C4.79,19.86,1.38,15.66.89,15Z" fill="#00b4ff"/><polygon points="6.09 31.44 5.61 31.44 5.61 8.56 6.58 8.56 6.58 31.44 6.09 31.44 6.09 31.44" fill="#4a4a4a"/><path d="M23.2,27.29V21.8a7,7,0,0,1,14.07,0V28a.45.45,0,0,1-.14.33.46.46,0,0,1-.32.13.47.47,0,0,1-.33-.13.45.45,0,0,1-.14-.33V21.8a6.11,6.11,0,0,0-12.21,0V27h0V37.34a7,7,0,0,1-14.07,0v-.5H11v.5a6.11,6.11,0,1,0,12.21,0V27.29Z" fill="#4a4a4a"/><path d="M36.26,24.64h1.1a.88.88,0,0,1,.87.87h0a.88.88,0,0,1-.87.87h-1.1a.87.87,0,0,1-.87-.87h0a.87.87,0,0,1,.87-.87Z" fill="#fc0" fill-rule="evenodd"/><path d="M37.36,26.84h-1.1a1.34,1.34,0,0,1,0-2.67h1.1a1.34,1.34,0,0,1,0,2.67Zm-1.1-1.74a.41.41,0,1,0,0,.81h1.1a.41.41,0,0,0,0-.81Z" fill="#4a4a4a"/><polygon points="10.64 21.35 10.64 21.83 6.46 21.83 6.46 20.86 10.64 20.86 10.64 21.35 10.64 21.35" fill="#4a4a4a"/><polygon points="8.49 24.62 8.49 25.1 6.4 25.1 6.4 24.13 8.49 24.13 8.49 24.62 8.49 24.62" fill="#4a4a4a"/></g></g></svg>